{"title":"From Dusk Till Dawn The Series S01E07 WEB-DL x264 AAC [GWC].mp4","uid":10074037,"size":185701902,"categoryP":"video","categoryS":"tv_shows","magnet":"?xt=urn:btih:28526642d7930859817d0ad43a242137a59e4d79&amp;dn=From+Dusk+Till+Dawn+The+Series+S01E07+WEB-DL+x264+AAC+%5BGWC%5D.mp4&amp;tr=udp%3A%2F%2Ftracker.openbittorrent.com%3A80&amp;tr=udp%3A%2F%2Fopen.demonii.com%3A1337&amp;tr=udp%3A%2F%2Ftracker.coppersurfer.tk%3A6969&amp;tr=udp%3A%2F%2Fexodus.desync.com%3A6969","seeders":1,"leechers":0,"uploader":"canc232","files":1,"time":1398895288,"description":"From Dusk Till Dawn The Series S01E07 WEB DL x264 AAC [GWC] \n\n\nSTORYLINE :\nA Texas Ranger is in hot pursuit of the infamous Gecko brothers.\n\n\nSCREENS : &lt;a href=&quot;\nhttp://i.imgur.com/bTNX5od.jpg&quot; rel=&quot;nofollow&quot; target=&quot;_NEW&quot;&gt;\nhttp://i.imgur.com/bTNX5od.jpg&lt;/a&gt; &lt;a href=&quot;\nhttp://i.imgur.com/TKlEPjj.jpg&quot; rel=&quot;nofollow&quot; target=&quot;_NEW&quot;&gt;\nhttp://i.imgur.com/TKlEPjj.jpg&lt;/a&gt; &lt;a href=&quot;\nhttp://i.imgur.com/moAey6V.jpg&quot; rel=&quot;nofollow&quot; target=&quot;_NEW&quot;&gt;\nhttp://i.imgur.com/moAey6V.jpg&lt;/a&gt;\n\n\nMEDIA INFO :\nGeneral \nFormat : MPEG-4 \nFormat profile : Base Media \nFile size : 177 MiB \nDuration : 49mn 53s \nOverall bit rate mode : Variable \nOverall bit rate : 496 Kbps \n\nVideo \nFormat : AVC \nFormat profile : &lt;a class=&quot;__cf_email__&quot; href=&quot;/cdn-cgi/l/email-protection&quot; data-cfemail=&quot;357d5c525d7579061b05&quot;&gt;[email&amp;#160;protected]&lt;/a&gt;&lt;script cf-hash='f9e31' type=&quot;text/javascript&quot;&gt;\n/* &lt;![CDATA[ */!function(){try{var t=&quot;currentScript&quot;in document?document.currentScript:function(){for(var t=document.getElementsByTagName(&quot;script&quot;),e=t.length;e--;)if(t[e].getAttribute(&quot;cf-hash&quot;))return t[e]}();if(t&amp;&amp;t.previousSibling){var e,r,n,i,c=t.previousSibling,a=c.getAttribute(&quot;data-cfemail&quot;);if(a){for(e=&quot;&quot;,r=parseInt(a.substr(0,2),16),n=2;a.length-n;n+=2)i=parseInt(a.substr(n,2),16)^r,e+=String.fromCharCode(i);e=document.createTextNode(e),c.parentNode.replaceChild(e,c)}}}catch(u){}}();/* ]]&gt; */&lt;/script&gt; \nFormat settings, CABAC : Yes \nFormat settings, ReFrames : 4 frames \nDuration : 49mn 53s \nBit rate : 433 Kbps \nMaximum bit rate : 2 157 Kbps \nWidth : 720 pixels \nHeight : 404 pixels \nDisplay aspect ratio : 16:9  \nFrame rate mode : Constant \nFrame rate : 23.976 fps \nStream size : 155 MiB (87%) \nTitle : From Dusk Till Dawn The Series S01E07 WEB DL x264 AAC [GWC] \nWriting library : x264 core\n\nAudio \nFormat : AAC \nFormat profile : HE-AAC / LC \nDuration : 49mn 53s \nBit rate mode : Variable \nChannel(s) : 2 channels \nSampling rate : 48.0 KHz / 24.0 KHz \nStream size : 21.4 MiB (12%) \nLanguage : English ","torrent":{"xt":"urn:btih:28526642d7930859817d0ad43a242137a59e4d79","amp;dn":"From+Dusk+Till+Dawn+The+Series+S01E07+WEB-DL+x264+AAC+%5BGWC%5D.mp4","amp;tr":["udp%3A%2F%2Ftracker.openbittorrent.com%3A80","udp%3A%2F%2Fopen.demonii.com%3A1337","udp%3A%2F%2Ftracker.coppersurfer.tk%3A6969","udp%3A%2F%2Fexodus.desync.com%3A6969"],"infoHash":"28526642d7930859817d0ad43a242137a59e4d79","infoHashBuffer":{"type":"Buffer","data":[40,82,102,66,215,147,8,89,129,125,10,212,58,36,33,55,165,158,77,121]},"announce":[],"urlList":[]}}